<svg width="24" height="24" viewBox="0 0 24 24" fill="none" xmlns="http://www.w3.org/2000/svg">
<path d="M11.9998 13.4002L7.0998 18.3002C6.91647 18.4835 6.68314 18.5752 6.3998 18.5752C6.11647 18.5752 5.88314 18.4835 5.6998 18.3002C5.51647 18.1168 5.4248 17.8835 5.4248 17.6002C5.4248 17.3168 5.51647 17.0835 5.6998 16.9002L10.5998 12.0002L5.6998 7.10017C5.51647 6.91684 5.4248 6.6835 5.4248 6.40017C5.4248 6.11684 5.51647 5.8835 5.6998 5.70017C5.88314 5.51684 6.11647 5.42517 6.3998 5.42517C6.68314 5.42517 6.91647 5.51684 7.0998 5.70017L11.9998 10.6002L16.8998 5.70017C17.0831 5.51684 17.3165 5.42517 17.5998 5.42517C17.8831 5.42517 18.1165 5.51684 18.2998 5.70017C18.4831 5.8835 18.5748 6.11684 18.5748 6.40017C18.5748 6.6835 18.4831 6.91684 18.2998 7.10017L13.3998 12.0002L18.2998 16.9002C18.4831 17.0835 18.5748 17.3168 18.5748 17.6002C18.5748 17.8835 18.4831 18.1168 18.2998 18.3002C18.1165 18.4835 17.8831 18.5752 17.5998 18.5752C17.3165 18.5752 17.0831 18.4835 16.8998 18.3002L11.9998 13.4002Z" fill="#58595D"/>
</svg>
