<svg width="23" height="20" viewBox="0 0 23 20" fill="none" xmlns="http://www.w3.org/2000/svg">
<path d="M11.2715 18C12.9283 18 14.2715 16.6569 14.2715 15C14.2715 13.3431 12.9283 12 11.2715 12C9.61463 12 8.27148 13.3431 8.27148 15C8.27148 16.6569 9.61463 18 11.2715 18Z" stroke="#B6BABC" stroke-width="2" stroke-linecap="round" stroke-linejoin="round"/>
<path d="M3.47183 13.1C2.69104 12.3631 2.09022 11.4565 1.71582 10.4503C1.34142 9.44414 1.20348 8.3653 1.31266 7.29728C1.42185 6.22925 1.77524 5.20064 2.3455 4.29102C2.91575 3.3814 3.6876 2.61513 4.60134 2.05149C5.51507 1.48785 6.54621 1.14193 7.615 1.0405C8.6838 0.939066 9.7616 1.08483 10.7651 1.46652C11.7685 1.84821 12.6707 2.4556 13.4019 3.24171C14.1331 4.02782 14.6737 4.97158 14.9818 6H16.7718C17.7257 6.01286 18.6508 6.32852 19.4136 6.90141C20.1764 7.4743 20.7374 8.27478 21.0156 9.18727C21.2938 10.0998 21.2748 11.0771 20.9614 11.9781C20.6479 12.8791 20.0563 13.6572 19.2718 14.2M14.9718 16.4L14.0718 16.1M8.47183 13.9L7.57183 13.6M9.87183 18.7L10.1718 17.8M12.3718 12.2L12.6718 11.3M12.8718 18.7L12.4718 17.7M10.0718 12.3L9.67183 11.3M7.57183 16.6L8.57183 16.2M13.9718 13.8L14.9718 13.4" stroke="#B6BABC" stroke-width="2" stroke-linecap="round" stroke-linejoin="round"/>
</svg>
